<svg width="18" height="18" viewBox="0 0 18 18" fill="none" xmlns="http://www.w3.org/2000/svg">
<rect width="18" height="18" rx="5" fill="#44CE59"/>
<path d="M9.00001 3C12.3138 3 15 5.6862 15 9C15 12.3138 12.3138 15 9.00001 15C7.93966 15.0018 6.89796 14.7212 5.98201 14.187L3.00241 15L3.81361 12.0192C3.27898 11.103 2.99815 10.0608 3.00001 9C3.00001 5.6862 5.68621 3 9.00001 3ZM6.95521 6.18L6.83521 6.1848C6.75762 6.19014 6.68181 6.21052 6.61201 6.2448C6.54695 6.2817 6.48754 6.32778 6.43561 6.3816C6.36361 6.4494 6.32281 6.5082 6.27901 6.5652C6.05708 6.85374 5.93759 7.20798 5.93941 7.572C5.94061 7.866 6.01741 8.1522 6.13741 8.4198C6.38281 8.961 6.78661 9.53399 7.31941 10.065C7.44781 10.1928 7.57381 10.3212 7.70941 10.4406C8.37146 11.0234 9.16037 11.4438 10.0134 11.6682L10.3542 11.7204C10.4652 11.7264 10.5762 11.718 10.6878 11.7126C10.8625 11.7034 11.0331 11.6561 11.1876 11.574C11.2661 11.5334 11.3428 11.4894 11.4174 11.442C11.4174 11.442 11.4428 11.4248 11.4924 11.388C11.5734 11.328 11.6232 11.2854 11.6904 11.2152C11.7408 11.1632 11.7828 11.1028 11.8164 11.034C11.8632 10.9362 11.91 10.7496 11.9292 10.5942C11.9436 10.4754 11.9394 10.4106 11.9376 10.3704C11.9352 10.3062 11.8818 10.2396 11.8236 10.2114L11.4744 10.0548C11.4744 10.0548 10.9524 9.82739 10.6332 9.6822C10.5998 9.66765 10.564 9.65931 10.5276 9.65759C10.4865 9.6533 10.445 9.65788 10.4059 9.67103C10.3668 9.68418 10.3309 9.70558 10.3008 9.73379C10.2978 9.73259 10.2576 9.7668 9.8238 10.2924C9.79891 10.3259 9.76461 10.3511 9.72529 10.365C9.68596 10.3789 9.64339 10.3808 9.603 10.3704C9.5639 10.36 9.5256 10.3467 9.4884 10.3308C9.414 10.2996 9.3882 10.2876 9.3372 10.266C8.99273 10.1159 8.67387 9.91288 8.39221 9.6642C8.31661 9.5982 8.24641 9.5262 8.17441 9.45659C7.93837 9.23052 7.73266 8.97479 7.56241 8.6958L7.52701 8.6388C7.50196 8.60027 7.48143 8.559 7.46581 8.5158C7.44301 8.4276 7.50241 8.3568 7.50241 8.3568C7.50241 8.3568 7.64821 8.1972 7.71601 8.1108C7.78201 8.0268 7.83781 7.9452 7.87381 7.887C7.94461 7.773 7.96681 7.656 7.92961 7.5654C7.76161 7.155 7.58801 6.7468 7.40881 6.3408C7.37341 6.2604 7.26841 6.2028 7.17301 6.1914C7.14061 6.1874 7.10821 6.1842 7.07581 6.1818C6.99524 6.17718 6.91446 6.17798 6.83401 6.1842L6.95521 6.18Z" fill="white"/>
</svg>
