<svg width="18" height="18" viewBox="0 0 18 18" fill="none" xmlns="http://www.w3.org/2000/svg">
<rect width="18" height="18" rx="5" fill="#55C6EF"/>
<path d="M13.0622 4.09711C13.0622 4.09711 14.0798 3.62097 13.995 4.77732C13.9667 5.25346 13.7123 6.91996 13.5145 8.72252L12.8361 14.0621C12.8361 14.0621 12.7796 14.8444 12.2708 14.9804C11.762 15.1164 10.9988 14.5043 10.8574 14.3682C10.7444 14.2662 8.7375 12.7357 8.03083 11.9875C7.83296 11.7834 7.60683 11.3753 8.05909 10.8992L11.027 7.49816C11.3662 7.09002 11.7054 6.13774 10.2921 7.29409L6.33486 10.5251C6.33486 10.5251 5.8826 10.8652 5.03464 10.5591L3.19732 9.87887C3.19732 9.87887 2.51894 9.36872 3.67785 8.85854C6.50447 7.26005 9.98121 5.62756 13.0622 4.09711Z" fill="white"/>
</svg>
